<svg
      width="155"
      height="87"
      viewBox="0 0 155 87"
      fill="none"
      xmlns="http://www.w3.org/2000/svg"
    >
      <path
        d="M12.0333 57.7898V73.07H3.50362V37.3464H11.7542V51.1963H12.0508C12.6555 49.545 13.6439 48.2542 15.0161 47.3239C16.3999 46.3936 18.0919 45.9284 20.0921 45.9284C21.9759 45.9284 23.6156 46.347 25.0111 47.1843C26.4065 48.01 27.488 49.1787 28.2555 50.6904C29.0346 52.2021 29.4184 53.9697 29.4067 55.9931V73.07H20.877V57.6677C20.8887 56.1792 20.5165 55.0163 19.7607 54.179C19.0048 53.3418 17.9408 52.9231 16.5686 52.9231C15.6731 52.9231 14.8824 53.1208 14.1963 53.5162C13.5218 53.8999 12.9927 54.4523 12.609 55.1733C12.2368 55.8943 12.045 56.7664 12.0333 57.7898ZM42.2842 73.5235C40.5747 73.5235 39.0572 73.2386 37.7315 72.6688C36.4174 72.0874 35.3767 71.2152 34.6092 70.0523C33.8533 68.8778 33.4754 67.4068 33.4754 65.6392C33.4754 64.1507 33.737 62.8948 34.2603 61.8715C34.7836 60.8481 35.5046 60.0167 36.4233 59.3771C37.3419 58.7375 38.4002 58.2549 39.5979 57.9293C40.7957 57.5921 42.0749 57.3653 43.4354 57.249C44.9588 57.1095 46.1856 56.9641 47.1159 56.813C48.0462 56.6502 48.7207 56.4234 49.1393 56.1327C49.5696 55.8303 49.7847 55.4059 49.7847 54.8593V54.7721C49.7847 53.8767 49.4766 53.1848 48.8603 52.6964C48.2439 52.208 47.4125 51.9638 46.3659 51.9638C45.2379 51.9638 44.3308 52.208 43.6447 52.6964C42.9586 53.1848 42.5226 53.8592 42.3365 54.7198L34.4696 54.4407C34.7022 52.8127 35.3011 51.3591 36.2663 50.0799C37.2431 48.7891 38.5804 47.7774 40.2782 47.0448C41.9876 46.3005 44.0401 45.9284 46.4357 45.9284C48.1451 45.9284 49.7208 46.1319 51.1628 46.5389C52.6047 46.9343 53.8606 47.5157 54.9305 48.2832C56.0003 49.0391 56.826 49.9694 57.4074 51.0741C58.0005 52.1789 58.297 53.4406 58.297 54.8593V73.07H50.2732V69.3372H50.0638C49.5871 70.2442 48.9765 71.0117 48.2323 71.6397C47.4997 72.2676 46.6333 72.7386 45.6333 73.0526C44.6448 73.3665 43.5285 73.5235 42.2842 73.5235ZM44.9181 67.9417C45.8368 67.9417 46.6624 67.7556 47.395 67.3835C48.1393 67.0114 48.7323 66.4997 49.1742 65.8485C49.6161 65.1857 49.8371 64.4182 49.8371 63.546V60.9993C49.5929 61.1272 49.2963 61.2435 48.9475 61.3482C48.6102 61.4528 48.2381 61.5517 47.8311 61.6447C47.4241 61.7377 47.0055 61.8191 46.5752 61.8889C46.1449 61.9587 45.7321 62.0227 45.3367 62.0808C44.5343 62.2087 43.8482 62.4064 43.2784 62.6739C42.7203 62.9413 42.29 63.2902 41.9876 63.7205C41.6969 64.1391 41.5516 64.6391 41.5516 65.2206C41.5516 66.1044 41.8655 66.7788 42.4935 67.244C43.1331 67.7091 43.9413 67.9417 44.9181 67.9417ZM63.5125 73.07V37.3464H72.0422V50.8648H72.2167C72.5655 50.0508 73.0598 49.2659 73.6993 48.51C74.3506 47.7541 75.1762 47.1378 76.1763 46.661C77.188 46.1726 78.3974 45.9284 79.8045 45.9284C81.6651 45.9284 83.4036 46.4168 85.02 47.3936C86.648 48.3705 87.962 49.8764 88.9621 51.9114C89.9622 53.9465 90.4622 56.5397 90.4622 59.6911C90.4622 62.7262 89.9796 65.2671 89.0145 67.3137C88.0609 69.3604 86.7701 70.8954 85.1421 71.9187C83.5257 72.9421 81.729 73.4537 79.7521 73.4537C78.4032 73.4537 77.2345 73.2328 76.246 72.7909C75.2576 72.349 74.4261 71.7676 73.7517 71.0466C73.0888 70.3256 72.5772 69.5523 72.2167 68.7266H71.955V73.07H63.5125ZM71.8678 59.6736C71.8678 61.1156 72.0597 62.3715 72.4434 63.4414C72.8388 64.5112 73.4028 65.3427 74.1354 65.9357C74.8797 66.5172 75.7693 66.8079 76.8042 66.8079C77.8508 66.8079 78.7404 66.5172 79.473 65.9357C80.2056 65.3427 80.758 64.5112 81.1301 63.4414C81.5139 62.3715 81.7058 61.1156 81.7058 59.6736C81.7058 58.2317 81.5139 56.9816 81.1301 55.9234C80.758 54.8651 80.2056 54.0453 79.473 53.4639C78.7521 52.8824 77.8624 52.5917 76.8042 52.5917C75.7576 52.5917 74.868 52.8766 74.1354 53.4464C73.4028 54.0162 72.8388 54.8302 72.4434 55.8885C72.0597 56.9467 71.8678 58.2084 71.8678 59.6736ZM94.9321 73.07V46.2773H103.462V73.07H94.9321ZM99.2056 43.1549C98.0079 43.1549 96.9787 42.7596 96.1182 41.9688C95.2577 41.1664 94.8274 40.2012 94.8274 39.0732C94.8274 37.9569 95.2577 37.0033 96.1182 36.2126C96.9787 35.4102 98.0079 35.009 99.2056 35.009C100.415 35.009 101.444 35.4102 102.293 36.2126C103.154 37.0033 103.584 37.9569 103.584 39.0732C103.584 40.2012 103.154 41.1664 102.293 41.9688C101.444 42.7596 100.415 43.1549 99.2056 43.1549ZM124.014 46.2773V52.5568H107.112V46.2773H124.014ZM110.653 39.8582H119.182V64.6449C119.182 65.1682 119.264 65.5927 119.427 65.9183C119.601 66.2323 119.851 66.459 120.177 66.5986C120.502 66.7265 120.892 66.7905 121.345 66.7905C121.671 66.7905 122.014 66.7614 122.375 66.7032C122.747 66.6335 123.026 66.5753 123.212 66.5288L124.503 72.6862C124.096 72.8025 123.52 72.9479 122.776 73.1223C122.043 73.2968 121.165 73.4072 120.142 73.4537C118.142 73.5468 116.426 73.3142 114.996 72.756C113.577 72.1862 112.49 71.3024 111.734 70.1047C110.99 68.9069 110.629 67.401 110.653 65.5869V39.8582ZM151.422 54.4581L143.59 54.6674C143.508 54.1093 143.287 53.615 142.927 53.1848C142.566 52.7429 142.096 52.3998 141.514 52.1556C140.944 51.8998 140.281 51.7719 139.526 51.7719C138.537 51.7719 137.694 51.9696 136.996 52.3649C136.31 52.7603 135.973 53.2952 135.985 53.9697C135.973 54.493 136.182 54.9465 136.613 55.3303C137.054 55.714 137.839 56.0222 138.967 56.2548L144.131 57.2316C146.805 57.7433 148.794 58.5922 150.096 59.7783C151.41 60.9644 152.073 62.5343 152.085 64.488C152.073 66.3253 151.526 67.9243 150.445 69.2848C149.375 70.6454 147.91 71.7036 146.049 72.4595C144.189 73.2037 142.061 73.5759 139.665 73.5759C135.839 73.5759 132.822 72.7909 130.612 71.221C128.414 69.6395 127.158 67.5231 126.844 64.8717L135.269 64.6624C135.455 65.6392 135.938 66.3834 136.717 66.8951C137.496 67.4068 138.491 67.6626 139.7 67.6626C140.793 67.6626 141.683 67.4591 142.369 67.0521C143.055 66.6451 143.404 66.1044 143.415 65.4299C143.404 64.8252 143.136 64.3426 142.613 63.9821C142.09 63.61 141.27 63.3193 140.154 63.1099L135.479 62.2203C132.792 61.7319 130.792 60.8307 129.478 59.5166C128.164 58.191 127.513 56.5048 127.525 54.4581C127.513 52.6673 127.99 51.1381 128.955 49.8706C129.92 48.5914 131.292 47.6146 133.072 46.9401C134.851 46.2656 136.95 45.9284 139.369 45.9284C142.997 45.9284 145.857 46.6901 147.951 48.2135C150.044 49.7252 151.201 51.8068 151.422 54.4581Z"
        fill="white"
      />
      <rect
        x="1.31159"
        y="1.02166"
        width="15.35"
        height="15.35"
        rx="3.58167"
        fill="#18181B"
        stroke="#27272A"
        stroke-width="1.02333"
      />
      <rect
        x="21.7783"
        y="1.02166"
        width="15.35"
        height="15.35"
        rx="3.58167"
        fill="#4C1D95"
        stroke="#6D28D9"
        stroke-width="1.02333"
      />
      <rect
        x="42.2449"
        y="1.02166"
        width="15.35"
        height="15.35"
        rx="3.58167"
        fill="#5B21B6"
        stroke="#7C3AED"
        stroke-width="1.02333"
      />
      <rect
        x="62.7116"
        y="1.02166"
        width="15.35"
        height="15.35"
        rx="3.58167"
        fill="#6D28D9"
        stroke="#8B5CF6"
        stroke-width="1.02333"
      />
      <rect
        x="83.1782"
        y="1.02166"
        width="15.35"
        height="15.35"
        rx="3.58167"
        fill="#7C3AED"
        stroke="#A78BFA"
        stroke-width="1.02333"
      />
      <rect
        x="103.645"
        y="1.02166"
        width="15.35"
        height="15.35"
        rx="3.58167"
        fill="#8B5CF6"
        stroke="#C4B5FD"
        stroke-width="1.02333"
      />
    </svg>